<?xml version="1.0" standalone="no"?>
<!DOCTYPE svg PUBLIC "-//W3C//DTD SVG 20010904//EN"
 "http://www.w3.org/TR/2001/REC-SVG-20010904/DTD/svg10.dtd">
<svg version="1.0" xmlns="http://www.w3.org/2000/svg"
 width="1024.000000pt" height="1024.000000pt" viewBox="0 0 1024.000000 1024.000000"
 preserveAspectRatio="xMidYMid meet">
<metadata>
Created by potrace 1.11, written by Peter Selinger 2001-2013
</metadata>
<g transform="translate(0.000000,1024.000000) scale(0.100000,-0.100000)"
fill="#000000" stroke="none">
<path d="M5058 9815 c-2 -1 -75 -5 -163 -9 -88 -3 -176 -8 -195 -10 -19 -3
-80 -10 -135 -16 -121 -14 -165 -20 -185 -25 -8 -3 -33 -7 -55 -10 -173 -26
-451 -97 -670 -172 -104 -36 -203 -71 -220 -79 -16 -7 -48 -20 -70 -27 -103
-36 -437 -199 -589 -286 -48 -28 -91 -51 -95 -51 -15 0 -258 -164 -386 -260
-947 -710 -1584 -1760 -1799 -2965 -16 -90 -26 -158 -31 -205 -1 -14 -5 -47
-9 -75 -3 -27 -8 -77 -11 -110 -3 -33 -8 -89 -11 -125 -6 -76 -7 -515 0 -545
2 -12 7 -63 11 -114 3 -51 8 -100 10 -109 1 -10 6 -46 10 -82 4 -36 9 -74 11
-85 2 -10 11 -60 19 -110 9 -49 18 -102 21 -117 24 -139 103 -434 168 -623
190 -558 490 -1084 879 -1544 82 -98 384 -404 453 -460 16 -13 56 -47 89 -76
356 -306 975 -668 1395 -816 36 -12 70 -26 77 -31 7 -5 22 -8 35 -7 13 1 59
-9 104 -24 130 -42 440 -121 521 -133 21 -3 45 -7 54 -10 9 -2 32 -7 50 -9 19
-3 45 -7 59 -10 22 -4 42 -7 140 -20 106 -14 114 -15 310 -30 58 -5 527 -6
560 -1 14 2 66 7 115 10 50 4 117 11 150 16 33 5 83 12 110 15 28 3 73 10 100
15 28 5 64 12 80 15 306 50 738 184 1057 327 140 62 423 210 480 249 14 11 28
19 31 19 28 0 474 313 582 408 17 15 59 51 95 81 82 69 366 354 445 446 33 39
67 79 77 90 32 36 133 169 210 275 160 222 302 460 405 680 30 63 59 123 64
132 17 32 107 263 144 368 216 623 302 1327 240 1980 -7 70 -48 363 -59 420
-3 14 -7 36 -10 50 -18 92 -28 139 -56 245 -17 66 -35 134 -40 150 -89 289
-171 504 -280 732 -37 78 -65 144 -62 147 3 3 -1 6 -8 6 -7 0 -11 3 -8 6 15
14 -219 386 -380 604 -360 487 -875 947 -1401 1253 -290 168 -700 351 -968
432 -215 66 -587 144 -803 170 -30 4 -66 8 -80 10 -14 2 -61 7 -105 10 -44 3
-102 8 -130 11 -49 6 -342 13 -347 9z"/>
</g>
</svg>
