<svg data-v-fde0c5aa="" xmlns="http://www.w3.org/2000/svg" viewBox="0 0 300 300" class="iconLeftSlogan"><!----><defs data-v-fde0c5aa=""><!----></defs><rect data-v-fde0c5aa="" fill="#FFFFFF" fill-opacity="0.0" x="0" y="0" width="300px" height="300px" class="logo-background-square"></rect><defs data-v-fde0c5aa=""><!----></defs><g data-v-fde0c5aa="" id="24ba6bce-a3e1-4035-930a-f9e0c02a8cd0" fill="#ffffff" transform="matrix(2.0724154653270337,0,0,2.0724154653270337,104.11291061521761,121.77310483613127)"><path d="M1.51 13.78L3.57 13.78L3.57 10.18L6.94 10.18L6.94 8.44L3.57 8.44L3.57 6.27L7.53 6.27L7.53 4.54L1.51 4.54ZM12.60 13.94C14.43 13.94 16.14 12.59 16.14 10.21C16.14 7.83 14.43 6.45 12.60 6.45C10.77 6.45 9.06 7.83 9.06 10.21C9.06 12.59 10.77 13.94 12.60 13.94ZM12.60 12.28C11.65 12.28 11.17 11.47 11.17 10.21C11.17 8.95 11.65 8.12 12.60 8.12C13.55 8.12 14.03 8.95 14.03 10.21C14.03 11.47 13.55 12.28 12.60 12.28ZM18.42 13.78L20.48 13.78L20.48 10.02C21.07 8.74 21.97 8.26 22.82 8.26C23.34 8.26 23.62 8.34 24.05 8.47L24.47 6.75C24.07 6.57 23.74 6.45 23.13 6.45C22.02 6.45 21 7.03 20.31 8.20L20.27 8.20L20.10 6.64L18.42 6.64ZM30.00 13.94C30.95 13.94 32.03 13.61 32.87 12.89L32.03 11.59C31.54 11.96 30.93 12.28 30.20 12.28C29.05 12.28 28.25 11.47 28.25 10.21C28.25 8.95 29.08 8.12 30.27 8.12C30.79 8.12 31.28 8.30 31.81 8.71L32.76 7.43C32.17 6.87 31.25 6.45 30.16 6.45C28.01 6.45 26.14 7.83 26.14 10.21C26.14 12.59 27.82 13.94 30.00 13.94ZM38.22 13.94C39.14 13.94 40.18 13.62 40.96 13.12L40.29 11.87C39.68 12.21 39.13 12.38 38.50 12.38C37.48 12.38 36.62 11.90 36.48 10.81L41.16 10.81C41.19 10.63 41.24 10.25 41.24 9.88C41.24 7.94 40.12 6.45 37.98 6.45C36.13 6.45 34.37 7.87 34.37 10.21C34.37 12.57 36.06 13.94 38.22 13.94ZM36.46 9.44C36.64 8.48 37.28 8.04 38.02 8.04C38.96 8.04 39.38 8.60 39.38 9.44ZM46.73 13.94C48.29 13.94 49.74 12.53 49.74 10.08C49.74 7.88 48.68 6.45 46.94 6.45C46.27 6.45 45.56 6.78 45.01 7.29L45.07 6.16L45.07 3.65L43.01 3.65L43.01 13.78L44.62 13.78L44.79 12.99L44.84 12.99C45.42 13.62 46.09 13.94 46.73 13.94ZM46.27 12.26C45.91 12.26 45.46 12.14 45.07 11.77L45.07 8.83C45.50 8.36 45.91 8.13 46.35 8.13C47.22 8.13 47.63 8.82 47.63 10.12C47.63 11.61 47.03 12.26 46.27 12.26ZM55.93 13.94C56.80 13.94 57.29 13.79 58.02 13.55L57.55 12.04C57.12 12.22 56.78 12.28 56.46 12.28C55.89 12.28 55.34 11.98 55.34 11.10L55.34 3.65L51.27 3.65L51.27 5.28L53.28 5.28L53.28 11.00C53.28 12.81 54.18 13.94 55.93 13.94ZM63 13.94C64.83 13.94 66.54 12.59 66.54 10.21C66.54 7.83 64.83 6.45 63 6.45C61.17 6.45 59.46 7.83 59.46 10.21C59.46 12.59 61.17 13.94 63 13.94ZM63 12.28C62.05 12.28 61.57 11.47 61.57 10.21C61.57 8.95 62.05 8.12 63 8.12C63.95 8.12 64.43 8.95 64.43 10.21C64.43 11.47 63.95 12.28 63 12.28ZM67.70 13.78L69.64 13.78L69.64 8.93C69.83 8.46 70 8.20 70.27 8.20C70.53 8.20 70.67 8.44 70.67 8.92L70.67 13.78L72.25 13.78L72.25 8.93C72.44 8.46 72.63 8.20 72.90 8.20C73.18 8.20 73.29 8.44 73.29 8.92L73.29 13.78L75.22 13.78L75.22 8.76C75.22 7.34 74.65 6.45 73.68 6.45C72.90 6.45 72.41 6.97 72.16 7.63C71.99 6.86 71.55 6.45 70.94 6.45C70.14 6.45 69.72 6.93 69.45 7.53L69.40 7.53L69.24 6.64L67.70 6.64Z"></path></g><defs data-v-fde0c5aa=""><linearGradient data-v-fde0c5aa="" gradientTransform="rotate(25)" id="662e744a-2b16-4eea-8a32-b488d4dc92bc" x1="0%" y1="0%" x2="100%" y2="0%"><stop data-v-fde0c5aa="" offset="0%" stop-color="#ffffff" stop-opacity="1"></stop><stop data-v-fde0c5aa="" offset="100%" stop-color="#DAF9FF" stop-opacity="1"></stop></linearGradient></defs><g data-v-fde0c5aa="" id="a9c11ce1-4962-46f5-bd78-81e616ba999d" stroke="none" fill="url(#662e744a-2b16-4eea-8a32-b488d4dc92bc)" transform="matrix(0.602692878978844,0,0,0.602692878978844,36.98658129953697,119.8652520171956)"><path d="M45.45 90.264c-1.795-.339-9.182-1.96-3.837-1.402 2.52-.378 8.636 2.503 8.857-.634-2.335-4.085-7.139-5.6-10.04-9.006-2.248-5.601 6.282-2.57 9.175-2.037 4.274 1.68 8.715-1.873 12.916-.061 1.32 3.862-4.813 5.587-7.053 7.941-1.618.594-5.42 5.571-1.546 4.66 3.034-.117 6.244-.506 9.117-.603-5.635 1.693-11.775 1.455-17.59 1.142zm27.122-19.067c-5.345-3.846-8.279-9.945-10.272-16.043-.802-3.15-4.166-8.988.506-10.33 8.085.505 15.754 14.257 17.322 20.404-.406 2.932-4.242 8.116-7.556 5.969zm-46.786-3.158c-3.205-1.753-8.968-4.922-6.612-9.328 3.483-5.082 9.935-7.288 12.843-12.884 1.74-4.413 8.324-4.333 9.86.131.749 4.964-2.619 9.349-5.072 13.363-2.638 3.352-5.16 7.65-9.493 8.875h-.76l-.766-.156zM74.33 21.52c-2.362-.829-.158-2.68.431-4.1 2.006-3.479 5.544-6.493 9.806-5.923 5.84-.139 9.253 5.765 9.978 10.882.732 4.824.864 10.32-1.804 14.586-3.753 2.476-6.922-2.95-9.295-5.265-2.978-3.438-5.586-7.266-9.116-10.18zM5.025 26.967c-.225-6.187.971-14.08 7.405-16.808 3.686-1.343 8.644-.68 10.92 2.844.798 1.76 4.691 4.675 2.872 6.288-5.925 4.64-9.33 11.953-15.708 16.103-5.144 2.747-5.31-5.497-5.489-8.427z"></path></g><defs data-v-fde0c5aa=""><!----></defs><g data-v-fde0c5aa="" id="620a4c9e-b3e8-4208-bbc5-ffe43503a6f7" fill="#ffffff" transform="matrix(0.7284237674704439,0,0,0.7284237674704439,106.41913909432914,159.05276196388726)"><path d="M8.93 2.21L5.67 6.61L2.35 2.21L1.13 2.21L1.13 11.48L2.18 11.48L2.18 3.81L5.67 8.22L9.10 3.81L9.10 11.48L10.15 11.48L10.15 2.21ZM23.58 2.21L22.26 2.21L18.33 11.48L19.49 11.48L20.62 8.79L25.21 8.79L26.35 11.48L27.51 11.48ZM21.03 7.83L22.92 3.30L24.81 7.83ZM43.37 2.21L41.89 2.21L36.74 7.04L36.74 2.21L35.69 2.21L35.69 11.48L36.74 11.48L36.74 8.44L38.65 6.65L42.28 11.48L43.60 11.48L39.42 5.94ZM58.48 3.22L58.48 2.21L51.66 2.21L51.66 11.48L58.48 11.48L58.48 10.47L52.71 10.47L52.71 7.35L57.86 7.35L57.86 6.33L52.71 6.33L52.71 3.22ZM78.20 2.21L77.15 2.21L77.15 11.48L78.20 11.48ZM94.05 2.21L86.53 2.21L86.53 3.22L89.77 3.22L89.77 11.48L90.82 11.48L90.82 3.22L94.05 3.22ZM118.80 2.21L118.80 6.33L113.41 6.33L113.41 2.21L112.36 2.21L112.36 11.48L113.41 11.48L113.41 7.35L118.80 7.35L118.80 11.48L119.85 11.48L119.85 2.21ZM133.28 2.21L131.96 2.21L128.03 11.48L129.19 11.48L130.33 8.79L134.92 8.79L136.05 11.48L137.21 11.48ZM130.73 7.83L132.62 3.30L134.51 7.83ZM146.44 8.18L149.56 8.18C151.54 8.18 152.75 7.03 152.75 5.19C152.75 3.37 151.54 2.21 149.56 2.21L145.39 2.21L145.39 11.48L146.44 11.48ZM149.49 3.21C150.95 3.21 151.70 3.96 151.70 5.19C151.70 6.44 150.95 7.20 149.49 7.20L146.44 7.20L146.44 3.21ZM162.23 8.18L165.35 8.18C167.33 8.18 168.55 7.03 168.55 5.19C168.55 3.37 167.33 2.21 165.35 2.21L161.18 2.21L161.18 11.48L162.23 11.48ZM165.28 3.21C166.74 3.21 167.50 3.96 167.50 5.19C167.50 6.44 166.74 7.20 165.28 7.20L162.23 7.20L162.23 3.21ZM183.79 3.22L183.79 2.21L176.97 2.21L176.97 11.48L183.79 11.48L183.79 10.47L178.02 10.47L178.02 7.35L183.18 7.35L183.18 6.33L178.02 6.33L178.02 3.22ZM199.43 2.21L199.43 10.01L193.70 2.21L192.49 2.21L192.49 11.48L193.54 11.48L193.54 3.65L199.26 11.48L200.48 11.48L200.48 2.21ZM209.48 10.05L209.48 11.48L210.84 11.48L210.84 10.05ZM210.55 8.92L210.81 2.21L209.51 2.21L209.78 8.92Z"></path></g></svg>